HIERARCHY
ROOT Hips
{
  OFFSET 5.80788e-005 67.184 3.4734
  CHANNELS 6 Xposition Yposition Zposition Zrotation Xrotation Yrotation
  JOINT Chest
  {
    OFFSET 0 8.7983 -4.7612
    CHANNELS 3 Zrotation Xrotation Yrotation
    JOINT Chest2
    {
      OFFSET 0 8.0291 0.4195
      CHANNELS 3 Zrotation Xrotation Yrotation
      JOINT Chest3
      {
        OFFSET 0 9.9351 -2.2114
        CHANNELS 3 Zrotation Xrotation Yrotation
        JOINT Neck
        {
          OFFSET 0 22.3885 -0.4656
          CHANNELS 3 Zrotation Xrotation Yrotation
          JOINT Head
          {
            OFFSET -0.0001 12.643 3.4389
            CHANNELS 3 Zrotation Xrotation Yrotation
            End Site
            {
              OFFSET 0.0001 17.6655 0.5274
            }
          }
        }
        JOINT LeftCollar
        {
          OFFSET 2.2603 21.606 7.4023
          CHANNELS 3 Zrotation Xrotation Yrotation
          JOINT LeftShoulder
          {
            OFFSET 13.5163 -1.1332 -5.0146
            CHANNELS 3 Zrotation Xrotation Yrotation
            JOINT LeftElbow
            {
              OFFSET -0.0995 -28.05 -0.2431
              CHANNELS 3 Zrotation Xrotation Yrotation
              JOINT LeftWrist
              {
                OFFSET 0.0679 -23.3996 -0.1402
                CHANNELS 3 Zrotation Xrotation Yrotation
                JOINT LeftFinger1
                {
                  OFFSET 0.7932 -9.069 2.5189
                  CHANNELS 3 Zrotation Xrotation Yrotation
                  JOINT LeftFinger11
                  {
                    OFFSET -0.8272 -3.3923 0.5977
                    CHANNELS 3 Zrotation Xrotation Yrotation
                    JOINT LeftFinger12
                    {
                      OFFSET -0.5649 -2.3158 0.4082
                      CHANNELS 3 Zrotation Xrotation Yrotation
                      End Site
                      {
                        OFFSET -0.4919 -1.6479 0.2673
                      }
                    }
                  }
                }
                JOINT LeftFinger2
                {
                  OFFSET 0.9159 -9.2044 0.2193
                  CHANNELS 3 Zrotation Xrotation Yrotation
                  JOINT LeftFinger21
                  {
                    OFFSET 0.0117 -4.1944 -0.0248
                    CHANNELS 3 Zrotation Xrotation Yrotation
                    JOINT LeftFinger22
                    {
                      OFFSET 0.0071 -2.3249 -0.0142
                      CHANNELS 3 Zrotation Xrotation Yrotation
                      End Site
                      {
                        OFFSET -0.1475 -2.0882 0.0028
                      }
                    }
                  }
                }
                JOINT LeftFinger3
                {
                  OFFSET 0.6113 -8.7231 -2.0637
                  CHANNELS 3 Zrotation Xrotation Yrotation
                  JOINT LeftFinger31
                  {
                    OFFSET -0.1927 -3.8059 -0.2383
                    CHANNELS 3 Zrotation Xrotation Yrotation
                    JOINT LeftFinger32
                    {
                      OFFSET -0.1091 -2.1688 -0.1362
                      CHANNELS 3 Zrotation Xrotation Yrotation
                      End Site
                      {
                        OFFSET -0.2358 -1.9176 -0.0906
                      }
                    }
                  }
                }
                JOINT LeftFinger4
                {
                  OFFSET -0.6151 -8.0947 -3.5641
                  CHANNELS 3 Zrotation Xrotation Yrotation
                  JOINT LeftFinger41
                  {
                    OFFSET -0.4882 -2.341 -0.6462
                    CHANNELS 3 Zrotation Xrotation Yrotation
                    JOINT LeftFinger42
                    {
                      OFFSET -0.3575 -1.7167 -0.4742
                      CHANNELS 3 Zrotation Xrotation Yrotation
                      End Site
                      {
                        OFFSET -0.4187 -1.5237 -0.3496
                      }
                    }
                  }
                }
                JOINT LeftFinger0
                {
                  OFFSET -1.42 -1.8761 1.4223
                  CHANNELS 3 Zrotation Xrotation Yrotation
                  JOINT LeftFinger01
                  {
                    OFFSET -1.1471 -3.4929 2.6334
                    CHANNELS 3 Zrotation Xrotation Yrotation
                    JOINT LeftFinger02
                    {
                      OFFSET -0.823 -2.3 1.6571
                      CHANNELS 3 Zrotation Xrotation Yrotation
                      End Site
                      {
                        OFFSET -0.5822 -1.6914 1.1582
                      }
                    }
                  }
                }
              }
            }
          }
        }
        JOINT RightCollar
        {
          OFFSET -2.2603 21.606 7.4023
          CHANNELS 3 Zrotation Xrotation Yrotation
          JOINT RightShoulder
          {
            OFFSET -13.5187 -1.1334 -5.0155
            CHANNELS 3 Zrotation Xrotation Yrotation
            JOINT RightElbow
            {
              OFFSET 0.0994 -28.0499 -0.2431
              CHANNELS 3 Zrotation Xrotation Yrotation
              JOINT RightWrist
              {
                OFFSET -0.0679 -23.3996 -0.1402
                CHANNELS 3 Zrotation Xrotation Yrotation
                JOINT RightFinger1
                {
                  OFFSET -0.7932 -9.0691 2.5189
                  CHANNELS 3 Zrotation Xrotation Yrotation
                  JOINT RightFinger11
                  {
                    OFFSET 0.8272 -3.3923 0.5977
                    CHANNELS 3 Zrotation Xrotation Yrotation
                    JOINT RightFinger12
                    {
                      OFFSET 0.565 -2.3158 0.4082
                      CHANNELS 3 Zrotation Xrotation Yrotation
                      End Site
                      {
                        OFFSET 0.4919 -1.6479 0.2673
                      }
                    }
                  }
                }
                JOINT RightFinger2
                {
                  OFFSET -0.916 -9.2044 0.2193
                  CHANNELS 3 Zrotation Xrotation Yrotation
                  JOINT RightFinger21
                  {
                    OFFSET -0.0117 -4.1944 -0.0248
                    CHANNELS 3 Zrotation Xrotation Yrotation
                    JOINT RightFinger22
                    {
                      OFFSET -0.0071 -2.3249 -0.0142
                      CHANNELS 3 Zrotation Xrotation Yrotation
                      End Site
                      {
                        OFFSET 0.1475 -2.0882 0.0028
                      }
                    }
                  }
                }
                JOINT RightFinger3
                {
                  OFFSET -0.6113 -8.7231 -2.0637
                  CHANNELS 3 Zrotation Xrotation Yrotation
                  JOINT RightFinger31
                  {
                    OFFSET 0.1927 -3.8059 -0.2383
                    CHANNELS 3 Zrotation Xrotation Yrotation
                    JOINT RightFinger32
                    {
                      OFFSET 0.1091 -2.1688 -0.1362
                      CHANNELS 3 Zrotation Xrotation Yrotation
                      End Site
                      {
                        OFFSET 0.2358 -1.9176 -0.0906
                      }
                    }
                  }
                }
                JOINT RightFinger4
                {
                  OFFSET 0.6151 -8.0947 -3.564
                  CHANNELS 3 Zrotation Xrotation Yrotation
                  JOINT RightFinger41
                  {
                    OFFSET 0.4882 -2.341 -0.6462
                    CHANNELS 3 Zrotation Xrotation Yrotation
                    JOINT RightFinger42
                    {
                      OFFSET 0.3574 -1.7166 -0.4742
                      CHANNELS 3 Zrotation Xrotation Yrotation
                      End Site
                      {
                        OFFSET 0.4187 -1.5237 -0.3496
                      }
                    }
                  }
                }
                JOINT RightFinger0
                {
                  OFFSET 1.4199 -1.8761 1.4221
                  CHANNELS 3 Zrotation Xrotation Yrotation
                  JOINT RightFinger01
                  {
                    OFFSET 1.1472 -3.4929 2.6336
                    CHANNELS 3 Zrotation Xrotation Yrotation
                    JOINT RightFinger02
                    {
                      OFFSET 0.8229 -2.3 1.6571
                      CHANNELS 3 Zrotation Xrotation Yrotation
                      End Site
                      {
                        OFFSET 0.5822 -1.6914 1.1582
                      }
                    }
                  }
                }
              }
            }
          }
        }
      }
    }
  }
  JOINT RightHip
  {
    OFFSET -9.412 3.9771 -0.7758
    CHANNELS 3 Zrotation Xrotation Yrotation
    JOINT RightKnee
    {
      OFFSET -0.7531 -40.938 0
      CHANNELS 3 Zrotation Xrotation Yrotation
      JOINT RightAnkle
      {
        OFFSET 0 -40.1986 0
        CHANNELS 3 Zrotation Xrotation Yrotation
        JOINT RightToe
        {
          OFFSET 0 -4.4182 9.239
          CHANNELS 3 Zrotation Xrotation Yrotation
          End Site
          {
            OFFSET 0 0 6.1981
          }
        }
      }
    }
  }
  JOINT LeftHip
  {
    OFFSET 9.4119 3.9773 -0.7758
    CHANNELS 3 Zrotation Xrotation Yrotation
    JOINT LeftKnee
    {
      OFFSET 0.7532 -40.9383 0
      CHANNELS 3 Zrotation Xrotation Yrotation
      JOINT LeftAnkle
      {
        OFFSET 0 -40.1986 0
        CHANNELS 3 Zrotation Xrotation Yrotation
        JOINT LeftToe
        {
          OFFSET 0 -4.4182 9.239
          CHANNELS 3 Zrotation Xrotation Yrotation
          End Site
          {
            OFFSET 0 0 6.1981
          }
        }
      }
    }
  }
}
MOTION
Frames:	6
Frame Time:	0.0333333
5.80788e-005 67.184 3.4734 0 0 -0 0 0 -0 0 0 -0 0 0 -0 0 0 -0 0 0 -0 0 0 -12.5014 88.1196 14.2451 10.6914 -0.00160068 -0.00239207 0.000740045 -8.4365e-005 7.00714e-005 -9.52055e-007 9.93923e-017 -1.98785e-016 -1.59028e-015 9.93923e-017 -5.96354e-016 -1.59028e-015 -9.93923e-017 -5.96354e-016 -1.59028e-015 9.93923e-017 -1.98785e-016 -1.59028e-015 -0.0128176 0.00232552 8.52707e-005 9.93923e-017 5.96354e-016 -0 9.93923e-017 -1.98785e-016 -1.59028e-015 -0.0160551 0.00299681 0.000857156 -2.48481e-016 0 3.18055e-015 9.93923e-017 -1.98785e-016 -1.59028e-015 -0.0125865 0.0031206 0.00282719 0 1.98785e-016 -0 9.93923e-017 -1.98785e-016 -1.59028e-015 9.93923e-017 -5.96354e-016 -1.59028e-015 -9.93923e-017 -5.96354e-016 -1.59028e-015 -0.865644 0.16582 7.03859 -88.0329 10.2057 -10.5567 0.0015593 -0.00248883 -0.000788628 7.87605e-005 4.10553e-005 1.24965e-005 -3.97569e-016 -7.95139e-016 3.18055e-015 -1.98785e-016 -3.97569e-016 3.18055e-015 -1.98785e-016 0 3.18055e-015 -3.97569e-016 -7.95139e-016 3.18055e-015 0.0129473 0.00231697 -8.70038e-005 9.93923e-017 -7.95139e-016 1.59028e-015 -3.97569e-016 -7.95139e-016 3.18055e-015 0.0163314 0.00303369 -0.000872333 3.97569e-016 7.95139e-016 -3.18055e-015 -3.97569e-016 -7.95139e-016 3.18055e-015 0.0145763 0.00367772 -0.00326275 9.93923e-017 -3.97569e-016 -0 -3.97569e-016 -7.95139e-016 3.18055e-015 -1.98785e-016 -3.97569e-016 3.18055e-015 -1.98785e-016 0 3.18055e-015 3.42485 1.36937 -0.0640303 0.000136572 0.69354 0.00145564 -3.42573 -2.06297 -0.0607933 -3.19502e-024 0 -1.48106e-024 -3.42498 1.36123 0.0639712 -6.769e-005 0.712612 -0.0012277 3.42582 -2.07388 0.0612819 2.55305e-023 0 -2.31416e-026 
-0.450916 64.0912 5.00971 2.01834e-007 0.180494 8.903e-008 -0.184132 3.00302 -0.0994691 -0.363787 6.00636 -0.18965 -0.363787 6.00635 -0.18965 -2.12252e-006 -0.547705 -1.17758e-006 3.23015e-007 -0.409552 2.52334e-008 -5.9279 -0.144018 -12.5014 44.896 7.65632 19.3474 -3.65458 -18.916 -1.22795 -5.09896 0.931428 -0.116755 4.44781e-015 -1.59028e-015 -0 1.73454e-006 1.72287e-006 -2.8712e-007 2.92723e-008 8.47482e-007 2.11399e-007 4.44781e-015 -1.59028e-015 -0 -0.0128305 0.00233026 8.6381e-005 -2.92629e-008 1.69497e-006 -2.11401e-007 4.44781e-015 -1.59028e-015 -0 -0.0160918 0.003007 0.000860787 -1.46301e-007 8.39219e-007 -1.05701e-006 4.44781e-015 -1.59028e-015 -0 -0.0125981 0.00312876 0.00283348 -1.17078e-006 3.11684e-006 8.70277e-008 4.44781e-015 -1.59028e-015 -0 1.73454e-006 1.72287e-006 -2.8712e-007 2.92723e-008 8.47482e-007 2.11399e-007 5.05966 0.0216386 7.03641 -45.0577 5.08764 -15.5143 3.56388 -18.9373 0.955575 5.09204 0.92368 0.246095 2.30577e-008 -2.91764e-009 2.12193e-007 1.94946e-006 7.73816e-007 -2.72515e-007 -2.30577e-008 4.31119e-009 -2.12193e-007 2.30577e-008 -2.91764e-009 2.12193e-007 0.012972 0.00232073 -8.63795e-005 -2.84009e-006 -6.33631e-007 8.61131e-008 2.30577e-008 -2.91764e-009 2.12193e-007 0.0163744 0.00304157 -0.000875693 2.30462e-008 -4.18358e-007 2.12194e-007 2.30577e-008 -2.91764e-009 2.12193e-007 0.014599 0.00368223 -0.00326597 -2.8171e-006 -2.03768e-007 2.98346e-007 2.30577e-008 -2.91764e-009 2.12193e-007 1.94946e-006 7.73816e-007 -2.72515e-007 -2.30577e-008 4.31119e-009 -2.12193e-007 -2.94911 -16.0486 -10.0197 -1.39704 33.7952 1.14988 7.73367 -17.2157 -1.75166 7.45443e-016 -1.98785e-016 1.59028e-015 3.72767 -15.9286 10.1079 1.20019 33.5883 -1.05723 -8.31088 -16.9072 1.47187 -4.15705e-007 9.59964e-008 8.25993e-007 
-0.653797 62.7308 5.85765 4.45151e-009 -0.631282 -1.38976e-007 -0.255238 4.53209 -0.153962 -0.500575 9.0648 -0.288959 -0.500576 9.06482 -0.288959 -6.9193e-006 -1.08969 -4.0775e-006 4.65617e-007 -0.816977 -1.49572e-007 -8.59545 -0.208767 -12.5014 26.0988 2.95943 21.8526 -5.60616 -27.3914 -2.27457 -7.39333 1.35328 -0.142151 1.10538e-005 -5.26944e-008 -7.18935e-007 -1.07996e-005 5.13006e-008 2.40705e-006 1.09903e-005 -9.00843e-008 -1.14096e-006 1.10538e-005 -5.26944e-008 -7.18935e-007 -0.0128364 0.002328 8.65383e-005 7.9414e-008 -8.44959e-007 5.27539e-007 1.10538e-005 -5.26944e-008 -7.18935e-007 -0.0160729 0.00300147 0.000860739 1.58817e-008 -8.446e-007 1.05508e-007 1.10538e-005 -5.26944e-008 -7.18935e-007 -0.0126341 0.00313283 0.00283508 6.35253e-008 -3.63008e-010 4.22032e-007 1.10538e-005 -5.26944e-008 -7.18935e-007 -1.07996e-005 5.13006e-008 2.40705e-006 1.09903e-005 -9.00843e-008 -1.14096e-006 7.72604 -0.0431802 7.03541 -25.9983 1.81386 -16.9537 5.43876 -27.4281 1.85744 7.38266 1.34584 0.329843 -3.47873e-015 -7.95139e-016 -3.97569e-016 1.2921e-015 7.95139e-016 3.97569e-016 1.2424e-015 2.38542e-015 -3.97569e-016 -3.47873e-015 -7.95139e-016 -3.97569e-016 0.0130215 0.00232813 -8.64834e-005 1.55273e-007 1.72349e-006 -8.11437e-007 -3.47873e-015 -7.95139e-016 -3.97569e-016 0.016299 0.00302765 -0.000871145 -1.44119e-015 7.95139e-016 -0 -3.47873e-015 -7.95139e-016 -3.97569e-016 0.0145463 0.00367127 -0.00325597 1.3418e-015 3.18055e-015 -0 -3.47873e-015 -7.95139e-016 -3.97569e-016 1.2921e-015 7.95139e-016 3.97569e-016 1.2424e-015 2.38542e-015 -3.97569e-016 -7.63924 -22.0913 -15.0727 -2.71476 47.4013 2.06321 12.5007 -23.5318 -2.67454 6.73181e-008 2.56884e-008 1.59611e-006 8.76038 -21.9284 15.1843 2.38834 47.12 -1.89477 -13.3945 -23.0983 2.25038 -8.45153e-007 -1.3142e-007 -9.18697e-009 
-0.608703 63.1607 6.01744 9.16818e-008 -2.43671 3.45024e-008 -0.233276 4.58813 -0.138109 -0.457628 9.17677 -0.258656 -0.457629 9.1768 -0.258657 -1.2888e-006 -1.62633 -7.92698e-007 1.23872e-007 -1.22235 6.44602e-008 -8.00266 -0.19444 -12.5014 30.2466 4.06748 21.3943 -5.14598 -25.5107 -2.00803 -6.88346 1.25946 -0.137994 -3.46519e-006 -8.2863e-008 -5.69203e-007 -1.4474e-015 0 -9.93923e-017 1.758e-015 -1.59028e-015 1.98785e-016 -3.46519e-006 -8.2863e-008 -5.69203e-007 -0.0128568 0.00233034 8.67872e-005 -6.16682e-008 -1.47431e-009 -4.22404e-007 -3.46519e-006 -8.2863e-008 -5.69203e-007 -0.0160518 0.00299519 0.00085753 -8.82107e-016 1.59028e-015 1.49089e-016 -3.46519e-006 -8.2863e-008 -5.69203e-007 -0.0125933 0.00312316 0.00282836 -6.16623e-008 -1.47113e-009 -4.22405e-007 -3.46519e-006 -8.2863e-008 -5.69203e-007 -1.4474e-015 0 -9.93923e-017 1.758e-015 -1.59028e-015 1.98785e-016 7.13351 -0.0288392 7.03565 -30.2219 2.57704 -16.6909 4.99803 -25.5434 1.62494 6.87368 1.25173 0.312697 -3.77506e-008 8.48763e-007 -3.17842e-007 8.80847e-008 -8.37174e-007 7.41632e-007 -3.62782e-015 7.95139e-016 3.97569e-016 -3.77506e-008 8.48763e-007 -3.17842e-007 0.0129618 0.00231551 -8.58023e-005 3.77394e-008 -3.54838e-010 3.17844e-007 -3.77506e-008 8.48763e-007 -3.17842e-007 0.0162658 0.00302144 -0.000868865 -9.66484e-007 2.08877e-006 -6.08036e-007 -3.77506e-008 8.48763e-007 -3.17842e-007 0.0146389 0.00369042 -0.00327297 -8.80414e-008 8.49168e-007 -7.41637e-007 -3.77506e-008 8.48763e-007 -3.17842e-007 8.80847e-008 -8.37174e-007 7.41632e-007 -3.62782e-015 7.95139e-016 3.97569e-016 -6.48126 -18.421 -13.7551 -2.22023 43.8739 1.72435 11.4601 -22.1275 -2.445 1.78906e-015 2.25228e-007 3.18055e-015 7.51331 -18.2723 13.8337 1.94685 43.6069 -1.58813 -12.2806 -21.7219 2.05463 -1.80983e-007 1.61582e-007 -4.84102e-006 
-0.608695 63.2721 6.29967 4.95519e-008 -4.06824 -1.07887e-007 -0.227713 4.91232 -0.135753 -0.446168 9.82514 -0.25323 -0.44617 9.82518 -0.25323 1.82447e-006 -2.16484 6.72664e-007 4.65957e-008 -1.62847 1.05153e-007 -8.00265 -0.194501 -12.5014 30.2464 4.06759 21.3943 -5.14592 -25.5108 -2.00808 -6.88341 1.25944 -0.137965 -2.23633e-015 4.77083e-015 4.96962e-017 6.17804e-008 8.11147e-007 4.22388e-007 1.90709e-015 -1.59028e-015 3.97569e-016 -2.23633e-015 4.77083e-015 4.96962e-017 -0.0127992 0.00232499 8.64978e-005 -1.80149e-015 0 1.98785e-016 -2.23633e-015 4.77083e-015 4.96962e-017 -0.0160476 0.00299645 0.000857945 -1.20513e-015 4.77083e-015 -1.49089e-016 -2.23633e-015 4.77083e-015 4.96962e-017 -0.0125091 0.00310319 0.00281057 1.14301e-015 -3.18055e-015 3.47873e-016 -2.23633e-015 4.77083e-015 4.96962e-017 6.17804e-008 8.11147e-007 4.22388e-007 1.90709e-015 -1.59028e-015 3.97569e-016 7.13352 -0.0289066 7.03565 -30.2218 2.57709 -16.6909 4.99808 -25.5434 1.62497 6.87367 1.2517 0.3127 -2.73329e-015 -1.59028e-015 -1.98785e-016 -1.68657e-006 -4.11302e-007 -2.1861e-007 2.4328e-006 1.65024e-006 4.02303e-008 -2.73329e-015 -1.59028e-015 -1.98785e-016 0.012912 0.00231122 -8.59369e-005 3.23025e-015 7.95139e-016 -1.98785e-016 -2.73329e-015 -1.59028e-015 -1.98785e-016 0.0163164 0.00303215 -0.000872295 5.03688e-008 -3.91071e-010 4.23783e-007 -2.73329e-015 -1.59028e-015 -1.98785e-016 0.0145591 0.00367294 -0.00325847 1.57335e-006 8.36285e-007 -7.34821e-007 -2.73329e-015 -1.59028e-015 -1.98785e-016 -1.68657e-006 -4.11302e-007 -2.1861e-007 2.4328e-006 1.65024e-006 4.02303e-008 -6.46642 -16.4819 -13.6331 -2.10377 43.4442 1.65107 11.4595 -22.1193 -2.43743 -2.67817e-006 2.8242e-007 2.86578e-006 7.48866 -16.3354 13.6892 1.84537 43.1742 -1.52363 -12.2802 -21.7141 2.04719 -1.09332e-015 -1.59028e-015 -0 
-0.608688 63.3894 6.57917 9.38693e-008 -5.70454 6.30146e-008 -0.222158 5.23676 -0.133229 -0.434772 10.474 -0.247529 -0.434773 10.474 -0.24753 3.59339e-006 -2.70406 2.26527e-006 -8.28489e-007 -2.0349 -1.23981e-007 -8.00265 -0.194543 -12.5014 30.2464 4.06761 21.3943 -5.14593 -25.5108 -2.00806 -6.88343 1.25945 -0.137973 1.61513e-015 0 -6.4605e-016 1.59028e-015 -1.59028e-015 -1.49089e-016 -6.9636e-008 3.38836e-008 -4.75167e-007 1.61513e-015 0 -6.4605e-016 -0.0127828 0.00231701 8.47121e-005 1.54679e-015 0 -2.48481e-016 1.61513e-015 0 -6.4605e-016 -0.0160894 0.00300304 0.000859474 -8.38623e-016 1.59028e-015 -4.96962e-016 1.61513e-015 0 -6.4605e-016 -0.0125511 0.0031146 0.00281907 -1.5469e-008 8.44516e-007 -1.05594e-007 1.61513e-015 0 -6.4605e-016 1.59028e-015 -1.59028e-015 -1.49089e-016 -6.9636e-008 3.38836e-008 -4.75167e-007 7.13352 -0.0289469 7.03566 -30.2219 2.57704 -16.6909 4.99802 -25.5434 1.62494 6.8737 1.25174 0.312699 3.10601e-015 7.95139e-016 7.95139e-016 2.52358e-008 4.24218e-007 2.11884e-007 5.04716e-008 -3.8085e-010 4.23769e-007 3.10601e-015 7.95139e-016 7.95139e-016 0.0129779 0.00231927 -8.62639e-005 -3.15571e-015 -3.97569e-015 -3.97569e-016 3.10601e-015 7.95139e-016 7.95139e-016 0.016284 0.0030234 -0.000870625 -6.01324e-015 -7.95139e-016 1.98785e-016 3.10601e-015 7.95139e-016 7.95139e-016 0.0146143 0.00368456 -0.00326949 5.0447e-008 -3.7707e-010 4.23771e-007 3.10601e-015 7.95139e-016 7.95139e-016 2.52358e-008 4.24218e-007 2.11884e-007 5.04716e-008 -3.8085e-010 4.23769e-007 -6.45527 -14.5347 -13.512 -1.98882 43.0147 1.57944 11.4587 -22.1112 -2.42986 6.76059e-008 -2.017e-007 1.61195e-006 7.46828 -14.3914 13.5461 1.74572 42.7422 -1.46065 -12.2797 -21.7062 2.0398 -1.09332e-015 0 -0 
